# xmcd
#
# Track frame offsets:
#	150
#	13330
#	24495
#	35977
#	48305
#	63815
#	76572
#	89037
#	98427
#	113250
#	125622
#	141010
#	152857
#
# Disc length: 2214 seconds
# Revision: 0
# Processed by: cddbd v1.5.2PL0 Copyright (c) Steve Scherf et al.
# Submitted via: dBpowerAMP V12.0
#
DISCID=9d08a40d
DTITLE=J.J. Barne and Steve Mancha - Rare Stamps
DYEAR=1969
DGENRE=Soul
TTITLE0=Come On Black [J.J. Barnes]
TTITLE1=Chains of Love [J.J. Barnes]
TTITLE2=Now That i GotYou Back [J.J. Barnes]
TTITLE3=Sweet Cherry [J.J. Barnes]
TTITLE4=Got to Get Rid of You [J.J. Barnes] [Bonus]
TTITLE5=Snow Flakes [J.J. Barnes] [Bonus]
TTITLE6=Dont' Make Me A Storyteller [Steve Mancha]
TTITLE7=I Love Like Yours [Steve Mancha]
TTITLE8=Keep The Faith [Steve Mancha]
TTITLE9=I Don't Wanna Loose You [Steve Mancha]
TTITLE10=Hate Yourselfin The Morning [Steve Mancha]
TTITLE11=Just Keep on Loving ME [Steve Mancha]
TTITLE12=Easy Living [Steve Mancha]
EXTD=
EXTT0=
EXTT1=
EXTT2=
EXTT3=
EXTT4=
EXTT5=
EXTT6=
EXTT7=
EXTT8=
EXTT9=
EXTT10=
EXTT11=
EXTT12=
PLAYORDER=
